<svg width="119" height="119" viewBox="0 0 119 119" xmlns="http://www.w3.org/2000/svg">
  <path id="Path" fill="white" stroke="none" d="M 91.815575 21.575203 L 27.886459 21.575203 C 24.828758 21.575203 22.349998 24.053963 22.349998 27.111664 L 22.349998 91.03875 C 22.349998 94.096451 24.828758 96.575211 27.886459 96.575211 L 91.815575 96.575211 C 94.873276 96.575211 97.352036 94.096451 97.352036 91.03875 L 97.352036 27.111664 C 97.352036 24.053963 94.873276 21.575203 91.815575 21.575203 Z M 44.704128 85.468811 L 33.428898 85.468811 L 33.428898 49.649063 L 44.704128 49.649063 L 44.704128 85.468811 Z M 39.066513 44.685883 C 35.476246 44.685883 32.565758 41.953293 32.565758 38.213867 C 32.565758 34.474449 35.476246 31.7388 39.066513 31.7388 C 42.65678 31.7388 45.567265 34.474449 45.567265 38.213867 C 45.567265 41.953293 42.65678 44.685883 39.066513 44.685883 Z M 86.27314 85.496338 L 74.99791 85.496338 L 74.99791 65.93203 C 74.99791 60.15979 72.543915 58.379692 69.37899 58.379692 C 66.033501 58.379692 62.752987 60.897648 62.752987 66.075974 L 62.752987 85.496338 L 51.477757 85.496338 L 51.477757 49.67659 L 62.321415 49.67659 L 62.321415 54.639259 L 62.465103 54.639259 C 63.556107 52.434105 67.3647 48.66951 73.182365 48.66951 C 79.474075 48.66951 86.27314 52.401558 86.27314 63.342613 L 86.27314 85.496338 Z"/>
</svg>
