<svg width="33" height="32" viewBox="0 0 33 32" fill="none" xmlns="http://www.w3.org/2000/svg">
<path fill-rule="evenodd" clip-rule="evenodd" d="M17.604 13.102C17.5706 13.7648 17.5324 14.5218 17.1238 15.0462C17.0914 15.0846 17.057 15.1211 17.0208 15.1558C16.8203 15.3737 16.5648 15.5305 16.2826 15.6088L16.2281 15.6218C15.9225 15.6943 15.6027 15.6724 15.3094 15.5589C15.2645 15.5442 15.2203 15.5271 15.1771 15.5078C14.5872 15.2202 14.2295 14.5579 13.917 13.9792C13.883 13.9162 13.8495 13.8542 13.8164 13.7938L13.3526 12.9496C12.3746 11.1694 11.3967 9.38925 10.4342 7.59949C10.3244 7.39516 10.2119 7.19312 10.0996 6.99132C9.78014 6.41773 9.4618 5.84604 9.21127 5.22907C9.18774 5.17114 9.16364 5.11261 9.13932 5.05356L9.13924 5.05336C8.87477 4.41115 8.5845 3.70628 8.72368 3.01591C8.9933 1.68232 10.5855 0.986415 11.7181 0.607299C12.066 0.493433 12.4216 0.397168 12.7809 0.309023C13.1401 0.220883 13.5023 0.151924 13.8639 0.100638C15.0442 -0.0663456 16.7741 -0.154821 17.5853 0.921672C18.0058 1.48019 18.046 2.24261 18.0826 2.938V2.93801C18.086 3.00268 18.0894 3.06677 18.0931 3.13006C18.1317 3.79769 18.09 4.45495 18.0481 5.11444C18.0335 5.34565 18.0188 5.57713 18.0076 5.80942C17.9161 7.71319 17.8054 9.61631 17.6947 11.5191C17.668 11.9778 17.6413 12.4364 17.6149 12.895C17.611 12.9627 17.6075 13.0319 17.604 13.102ZM28.2818 12.3672C27.8881 11.5229 27.3588 10.7521 26.716 10.0868C26.6329 10.0023 26.5438 9.92416 26.4495 9.85297C26.3624 9.78621 26.272 9.72416 26.1785 9.66707C26.0825 9.61324 25.9836 9.5647 25.8825 9.52165C25.6825 9.44144 25.4682 9.40528 25.2537 9.41551C25.0485 9.42745 24.8482 9.4849 24.6668 9.5839C24.3918 9.72359 24.0943 9.94813 23.6985 10.3241C23.6624 10.3608 23.62 10.4006 23.5777 10.4405L23.5777 10.4405L23.5776 10.4405L23.5775 10.4406L23.5772 10.4409C23.5557 10.4612 23.5342 10.4814 23.5135 10.5013C23.2516 10.7528 22.9663 11.0513 22.6406 11.3919L22.6402 11.3923C22.5599 11.4763 22.477 11.563 22.3915 11.6521C21.7238 12.3417 21.0662 13.035 20.4127 13.7359L19.2434 14.975C19.0294 15.2015 18.8344 15.446 18.6606 15.7061C18.5126 15.9259 18.4078 16.1731 18.3523 16.4339C18.3202 16.6338 18.3249 16.8382 18.3662 17.0363L18.3722 17.0629C18.4646 17.4733 18.7091 17.831 19.0544 18.0605C19.3995 18.2901 19.8184 18.3737 20.2229 18.2936C20.287 18.2842 20.3367 18.2728 20.3669 18.2653L26.6012 16.7933L26.6957 16.7711C27.1562 16.6629 27.6193 16.5542 28.0325 16.3091C28.3285 16.1336 28.6102 15.9597 28.8033 15.6089C28.9065 15.4161 28.969 15.2033 28.9867 14.9845C29.0823 14.1162 28.6387 13.1301 28.2818 12.3672ZM12.1954 20.1902L13.6372 19.8497C13.6676 19.8426 13.7177 19.8308 13.7788 19.8107C14.1767 19.7012 14.5176 19.4383 14.7298 19.0771C14.942 18.7159 15.009 18.2847 14.9165 17.8744L14.9106 17.8478C14.8632 17.6511 14.7802 17.4652 14.666 17.2999C14.5044 17.0903 14.3044 16.9151 14.0773 16.7838C13.8099 16.628 13.53 16.4954 13.2407 16.3879L11.6597 15.7981C10.7725 15.4611 9.88533 15.1325 8.98981 14.812C8.87496 14.7702 8.76358 14.7295 8.65548 14.6899L8.65416 14.6894L8.65312 14.689C8.21561 14.5289 7.83188 14.3885 7.48951 14.2803C7.46311 14.272 7.43583 14.2637 7.40852 14.2554C7.35235 14.2383 7.29611 14.2211 7.24739 14.2039C6.73054 14.0421 6.36738 13.9749 6.06004 13.9727C5.85477 13.965 5.65029 14.0031 5.46081 14.0844C5.26337 14.1714 5.08604 14.3 4.94042 14.4619C4.86799 14.5461 4.79989 14.634 4.73639 14.7253C4.67681 14.8185 4.62217 14.9147 4.57271 15.0139C4.51824 15.1203 4.47143 15.2304 4.43266 15.3437C4.13924 16.2301 3.99308 17.1604 4.00025 18.096C4.00554 18.9418 4.02777 20.0274 4.48271 20.7633C4.59233 20.9521 4.73944 21.1154 4.91456 21.2426C5.23865 21.4712 5.56616 21.5014 5.90689 21.5265C6.3839 21.5614 6.84696 21.4514 7.30789 21.3419L7.40115 21.3198L12.1913 20.1888L12.1954 20.1902ZM16.5828 21.3679C16.4064 21.1145 16.1562 20.9245 15.8678 20.8252C15.5794 20.7259 15.2677 20.7223 14.9771 20.8152C14.9089 20.8383 14.8424 20.8666 14.7781 20.8995C14.6787 20.9512 14.5839 21.0116 14.4947 21.0801C14.2349 21.2768 14.0161 21.5324 13.8169 21.7887C13.7991 21.8118 13.7818 21.8375 13.7643 21.8636C13.7321 21.9116 13.6991 21.9608 13.6602 21.997L12.6574 23.4067C12.089 24.1963 11.5285 24.988 10.9726 25.7922C10.8999 25.8964 10.8291 25.9974 10.7604 26.0953C10.4867 26.4854 10.2466 26.8278 10.0485 27.1379C10.0314 27.1645 10.0141 27.1922 9.99683 27.2198L9.99675 27.2199C9.96656 27.2682 9.93651 27.3162 9.90814 27.3575C9.61116 27.8271 9.44296 28.1698 9.35663 28.4751C9.29179 28.678 9.27127 28.8928 9.29652 29.1046C9.32412 29.3252 9.3968 29.5373 9.50983 29.7273C9.56993 29.8225 9.6347 29.9147 9.7039 30.0032C9.77581 30.0885 9.85218 30.1697 9.93267 30.2465C10.0186 30.3302 10.1106 30.4074 10.2078 30.4774C10.8999 30.9695 11.6576 31.323 12.4546 31.5962C13.1179 31.8212 13.8073 31.9559 14.505 31.9967C14.6237 32.0029 14.7427 32.0002 14.8611 31.9888C14.9708 31.9791 15.0799 31.9634 15.188 31.942C15.296 31.9163 15.4026 31.8845 15.5073 31.8472C15.7111 31.7692 15.8966 31.6486 16.0519 31.4929C16.199 31.3423 16.3121 31.1609 16.3835 30.961C16.4994 30.6658 16.5757 30.2909 16.6258 29.7344C16.6287 29.6817 16.6346 29.6221 16.6405 29.5624L16.6405 29.5623C16.642 29.5472 16.6434 29.532 16.6449 29.517C16.6463 29.5023 16.6477 29.4877 16.6489 29.4733C16.68 29.1107 16.6979 28.6983 16.7182 28.2291L16.7182 28.2291V28.2291C16.7237 28.1008 16.7295 27.9683 16.7357 27.8313C16.7847 26.8504 16.8232 25.8738 16.8536 24.8945C16.8536 24.8945 16.9182 23.1541 16.918 23.1531C16.9328 22.7521 16.9207 22.3076 16.8118 21.9083C16.764 21.7169 16.6867 21.5346 16.5828 21.3679ZM26.928 23.3355C27.3958 23.6247 27.6923 23.8585 27.9017 24.0931C28.0467 24.2462 28.1572 24.4303 28.2253 24.6319C28.2944 24.8425 28.3196 25.0654 28.299 25.2866C28.286 25.3991 28.2673 25.511 28.243 25.6217C28.2147 25.7305 28.1811 25.8378 28.1422 25.9432C28.1005 26.057 28.051 26.1676 27.9936 26.2741C27.5813 27.027 27.0512 27.6845 26.4515 28.2876C25.9514 28.7874 25.3892 29.2176 24.7792 29.5671C24.6753 29.6259 24.5674 29.6769 24.4562 29.7195C24.3533 29.76 24.2484 29.7949 24.1418 29.824C24.0338 29.8494 23.9244 29.8687 23.8142 29.8821C23.5977 29.904 23.379 29.8792 23.1724 29.8092C22.976 29.7398 22.7966 29.6275 22.647 29.4799C22.4161 29.2642 22.1883 28.9634 21.9048 28.4856C21.8785 28.4375 21.8464 28.3841 21.8144 28.3308C21.8004 28.3074 21.7863 28.284 21.7728 28.2612C21.5877 27.9454 21.3926 27.5776 21.1704 27.1587C21.113 27.0505 21.0538 26.9389 20.9925 26.8239C20.5291 25.9649 20.0773 25.1032 19.6309 24.2365L18.8285 22.6998C18.6439 22.3458 18.4653 21.9417 18.3919 21.5331C18.3553 21.3402 18.3483 21.1428 18.3712 20.9477C18.421 20.641 18.5642 20.3582 18.7804 20.1396C18.9966 19.9209 19.2747 19.7776 19.5751 19.73C19.6464 19.7203 19.7181 19.7158 19.7901 19.7167C19.9015 19.7187 20.0126 19.7304 20.1221 19.7519C20.4397 19.8123 20.7457 19.944 21.0344 20.085C21.0601 20.0977 21.0866 20.113 21.1135 20.1286C21.1632 20.1573 21.2142 20.1869 21.2647 20.202L22.7672 21.0163C23.6176 21.473 24.46 21.9334 25.3019 22.4057C25.4215 22.4721 25.5373 22.536 25.6494 22.5978C26.0508 22.8191 26.404 23.0139 26.7084 23.201C26.733 23.216 26.7583 23.2318 26.7836 23.2476C26.8334 23.2788 26.8833 23.31 26.928 23.3355Z" fill="white"/>
</svg>
