<svg width="33" height="32" viewBox="0 0 33 32" fill="none" xmlns="http://www.w3.org/2000/svg">
<path d="M30.8998 0H2.43317C1.45717 0 0.666504 0.790667 0.666504 1.76667V30.2347C0.666504 31.2093 1.45717 32 2.43317 32H17.7598V19.608H13.5892V14.7787H17.7598V11.2173C17.7598 7.084 20.2838 4.83333 23.9718 4.83333C25.7385 4.83333 27.2558 4.96533 27.6985 5.024V9.344L25.1412 9.34533C23.1358 9.34533 22.7478 10.2987 22.7478 11.696V14.78H27.5305L26.9078 19.6093H22.7478V32H30.9025C31.8758 32 32.6665 31.2093 32.6665 30.2333V1.76667C32.6665 0.790667 31.8758 0 30.8998 0Z" fill="white"/>
</svg>
