<svg width="33" height="32" viewBox="0 0 33 32" fill="none" xmlns="http://www.w3.org/2000/svg">
<path d="M25.9998 0H7.33317C3.65184 0 0.666504 2.98533 0.666504 6.66667V25.3333C0.666504 29.0147 3.65184 32 7.33317 32H25.9998C29.6825 32 32.6665 29.0147 32.6665 25.3333V6.66667C32.6665 2.98533 29.6825 0 25.9998 0ZM11.3332 25.3333H7.33317V10.6667H11.3332V25.3333ZM9.33317 8.976C8.04517 8.976 6.99984 7.92267 6.99984 6.624C6.99984 5.32533 8.04517 4.272 9.33317 4.272C10.6212 4.272 11.6665 5.32533 11.6665 6.624C11.6665 7.92267 10.6225 8.976 9.33317 8.976ZM27.3332 25.3333H23.3332V17.8613C23.3332 13.3707 17.9998 13.7107 17.9998 17.8613V25.3333H13.9998V10.6667H17.9998V13.02C19.8612 9.572 27.3332 9.31733 27.3332 16.3213V25.3333Z" fill="white"/>
</svg>
