<svg width="200" height="225" viewBox="0 0 200 225" xmlns="http://www.w3.org/2000/svg">
  <path id="Path" fill="white" stroke="none" d="M 61.553799 141.722 L 71.705299 139.376007 C 71.9188 139.326996 72.2715 139.246002 72.702301 139.106995 C 75.503304 138.352997 77.903603 136.542007 79.397598 134.052994 C 80.891701 131.565002 81.362999 128.593994 80.712196 125.766998 C 80.697998 125.705002 80.684502 125.646004 80.670197 125.584 C 80.3367 124.228996 79.752602 122.947998 78.947998 121.808998 C 77.810303 120.364998 76.402496 119.157997 74.8032 118.253998 C 72.920601 117.18 70.950203 116.266998 68.9132 115.526001 L 57.7826 111.462997 C 51.536201 109.140999 45.290199 106.876999 38.985401 104.668999 C 34.896801 103.213997 31.432699 101.936996 28.4226 101.005997 C 27.854401 100.831001 27.227699 100.655998 26.718 100.480003 C 23.0791 99.3647 20.522301 98.902298 18.3585 98.8871 C 16.9133 98.834 15.4737 99.096603 14.1397 99.656403 C 12.7496 100.255997 11.5011 101.141998 10.4759 102.257004 C 9.96594 102.836998 9.48647 103.443001 9.03945 104.071999 C 8.61998 104.713997 8.23529 105.376999 7.88704 106.059998 C 7.50358 106.792999 7.17403 107.552002 6.90106 108.332001 C 4.83522 114.439003 3.80619 120.848 3.8567 127.293999 C 3.89394 133.121002 4.05045 140.600006 7.25339 145.669998 C 8.02519 146.970993 9.06091 148.095993 10.2938 148.972 C 12.5756 150.546997 14.8814 150.755005 17.2803 150.927994 C 20.8652 151.184998 24.3382 150.304001 27.800501 149.503998 L 61.525501 141.712006 L 61.553799 141.722 Z"/>
  <path id="path1" fill="white" stroke="none" d="M 174.809998 87.825897 C 172.037994 82.008911 168.311996 76.698395 163.785995 72.114807 C 163.201004 71.532898 162.574005 70.994507 161.910004 70.503998 C 161.296997 70.044098 160.660004 69.616608 160.001999 69.223297 C 159.326004 68.852402 158.630005 68.518005 157.917999 68.221405 C 156.509995 67.668793 155.001007 67.419708 153.490997 67.490204 C 152.046005 67.572403 150.636002 67.968201 149.358994 68.650299 C 147.423004 69.612701 145.328003 71.159607 142.542007 73.749802 C 142.156998 74.132111 141.673004 74.563507 141.238998 74.970306 C 138.940002 77.131592 136.382996 79.796097 133.339996 82.898895 C 128.639008 87.649597 124.009003 92.4263 119.407997 97.255203 L 111.176003 105.792 C 109.668999 107.351997 108.295998 109.037003 107.072998 110.829002 C 106.030998 112.343002 105.292999 114.045998 104.902 115.843002 C 104.676003 117.220001 104.709 118.627998 105 119.992996 C 105.014 120.055 105.028 120.113998 105.042 120.176003 C 105.693001 123.003998 107.414001 125.468002 109.845001 127.049004 C 112.275002 128.630997 115.223999 129.207001 118.071999 128.654999 C 118.523003 128.589996 118.873001 128.511993 119.085999 128.460007 L 162.977997 118.319 C 166.436996 117.518997 169.947006 116.787003 173.054993 114.983002 C 175.139008 113.774002 177.121994 112.575996 178.481995 110.158997 C 179.207993 108.831001 179.647995 107.364998 179.772995 105.857002 C 180.445999 99.875 177.322998 93.081497 174.809998 87.825897 Z"/>
  <path id="path2" fill="white" stroke="none" d="M 96.252296 106.282997 C 99.432999 102.287003 99.425102 96.331604 99.709602 91.462494 C 100.667 75.194305 101.675003 58.923904 102.473999 42.646698 C 102.778999 36.4814 103.443001 30.399597 103.075996 24.187408 C 102.774002 19.062592 102.737 13.178604 99.501297 8.9729 C 93.789703 1.556488 81.610703 2.166031 73.300797 3.316452 C 70.755302 3.669785 68.2052 4.144867 65.675797 4.752106 C 63.146301 5.359375 60.6427 6.022583 58.193199 6.807053 C 50.219501 9.418945 39.009701 14.213303 37.1115 23.401001 C 36.041401 28.595093 38.577099 33.908295 40.5443 38.648407 C 42.928699 44.394409 46.1856 49.570297 49.153999 54.979202 C 57.001801 69.258698 64.995201 83.449097 72.966103 97.654503 C 75.346298 101.894997 77.941002 107.265999 82.546303 109.462997 C 82.8507 109.596001 83.161598 109.713997 83.477898 109.815002 C 85.542999 110.597 87.794098 110.748001 89.945702 110.248001 C 90.0756 110.218002 90.202499 110.189003 90.329399 110.158997 C 92.3162 109.619003 94.115097 108.539001 95.526497 107.038002 C 95.781403 106.799004 96.023697 106.546997 96.252296 106.282997 Z"/>
  <path id="path3" fill="white" stroke="none" d="M 92.444199 149.835999 C 91.202698 148.089996 89.440903 146.781006 87.410599 146.097 C 85.380302 145.412994 83.185501 145.388 81.139801 146.028 C 80.659302 146.186996 80.191002 146.382004 79.738602 146.608994 C 79.039001 146.964996 78.371498 147.380997 77.7435 147.852997 C 75.914299 149.207993 74.373901 150.968994 72.971397 152.735001 C 72.615601 153.184998 72.290901 153.785004 71.867699 154.169998 L 64.807701 163.882004 C 60.806099 169.322006 56.859699 174.776001 52.9464 180.317001 C 50.393101 183.893997 48.184502 186.914993 46.439899 189.587997 C 46.109299 190.091003 45.765999 190.653 45.4519 191.100998 C 43.361 194.335999 42.1768 196.697006 41.569 198.800003 C 41.112499 200.197998 40.967999 201.677994 41.145802 203.136993 C 41.340099 204.656998 41.851799 206.117996 42.647598 207.427002 C 43.070702 208.082993 43.526699 208.718002 44.013901 209.328003 C 44.520199 209.916 45.057899 210.475006 45.624599 211.003998 C 46.2299 211.580994 46.877201 212.113007 47.561298 212.595001 C 52.434299 215.985001 57.768902 218.421005 63.380299 220.302994 C 68.049797 221.852997 72.903503 222.781006 77.816101 223.061996 C 78.651802 223.104996 79.489502 223.085999 80.322701 223.007996 C 81.094902 222.940994 81.863098 222.832993 82.6241 222.684998 C 83.384598 222.507996 84.135002 222.289001 84.872299 222.031998 C 86.3069 221.494995 87.613197 220.664001 88.706802 219.591003 C 89.741997 218.554001 90.538803 217.304001 91.041496 215.927002 C 91.857498 213.893005 92.394203 211.309998 92.747101 207.475998 C 92.778099 206.931 92.855797 206.276993 92.910103 205.677002 C 93.188499 202.496002 93.3162 198.759003 93.520897 194.365005 C 93.866096 187.606995 94.136902 180.878998 94.350998 174.132004 C 94.350998 174.132004 94.805702 162.141998 94.804298 162.134995 C 94.908401 159.371994 94.823196 156.309998 94.056702 153.559006 C 93.7202 152.240005 93.175903 150.983994 92.444199 149.835999 Z"/>
  <path id="path4" fill="white" stroke="none" d="M 172.134995 168.610001 C 170.660995 166.994003 168.572998 165.382996 165.279999 163.391006 C 164.804993 163.126007 164.248001 162.772003 163.733994 162.464005 C 160.992004 160.815002 157.688995 159.080002 153.830994 156.985001 C 147.904007 153.731003 141.973007 150.559006 135.985992 147.412994 L 125.407997 141.802994 C 124.860001 141.641998 124.303001 141.246002 123.786003 140.996994 C 121.753998 140.024994 119.598999 139.117996 117.362999 138.701996 C 116.592003 138.554001 115.809998 138.473007 115.026001 138.459 C 114.518997 138.453003 114.014 138.483994 113.512001 138.550995 C 111.397003 138.878998 109.439003 139.865997 107.917 141.373001 C 106.394997 142.878998 105.387001 144.826996 105.036003 146.940002 C 104.875 148.283997 104.924004 149.643997 105.181999 150.973007 C 105.698997 153.787994 106.956001 156.572006 108.255997 159.011002 L 113.904999 169.598007 C 117.047997 175.569 120.228996 181.505997 123.490997 187.423996 C 125.594002 191.283997 127.345001 194.587997 128.985001 197.326004 C 129.296005 197.841003 129.647995 198.395004 129.914001 198.871994 C 131.910004 202.164001 133.514008 204.235992 135.139999 205.722 C 136.192993 206.738998 137.455994 207.513 138.839005 207.990997 C 140.292999 208.473007 141.832993 208.643997 143.356995 208.492996 C 144.132996 208.401001 144.903 208.268005 145.664001 208.093002 C 146.414001 207.891998 147.153 207.651993 147.876999 207.373001 C 148.660004 207.078995 149.419998 206.727997 150.151001 206.322998 C 154.445999 203.914993 158.404007 200.951004 161.925003 197.507996 C 166.147003 193.352997 169.878998 188.822998 172.781998 183.636002 C 173.186005 182.901993 173.535004 182.139999 173.828003 181.356003 C 174.102005 180.630005 174.339005 179.891006 174.537994 179.141006 C 174.709 178.378998 174.841003 177.608002 174.932007 176.832993 C 175.076996 175.309006 174.899994 173.772995 174.412994 172.322006 C 173.934006 170.932999 173.156006 169.664993 172.134995 168.610001 Z"/>
</svg>
